<svg xmlns="http://www.w3.org/2000/svg" width="143" height="24" viewBox="0 0 143 24">
    <g fill="#FFF" fill-rule="evenodd">
        <path d="M43.842 12.579c.083-1.744-1.433-3.358-3.166-3.402-2.051-.052-3.682 1.443-3.691 3.402h6.857zm5.351 5.406a5.816 5.816 0 0 1-1.092 2.324c-1.552 1.996-3.635 3.037-6.139 3.283-1.697.166-3.363.02-4.964-.599-2.481-.96-4.15-2.71-4.998-5.204-.785-2.313-.787-4.646.084-6.93 1.074-2.815 3.108-4.65 6.073-5.338 2.722-.631 5.318-.28 7.636 1.38 1.51 1.08 2.465 2.565 3.048 4.301.491 1.465.68 2.974.68 4.51 0 .037-.013.073-.028.147H36.921c.115.849.37 1.596.811 2.282.871 1.358 2.39 1.72 3.883 1.477.92-.15 1.6-.653 2.058-1.461.05-.09.174-.194.265-.194 1.722-.01 3.445-.007 5.167-.005.018 0 .036.01.088.027zM130.06 12.568h6.878c-.079-1.498-1.066-3.355-3.243-3.396-2.099-.04-3.304 1.254-3.635 3.396m12.517 3.295h-12.548c.285 2.36 1.66 3.923 4.07 3.824 1.178-.048 2.106-.513 2.681-1.577.04-.072.155-.149.236-.15 1.722-.007 3.445-.004 5.167-.003.026 0 .052.014.096.026a5.928 5.928 0 0 1-1.1 2.336c-1.299 1.682-3.02 2.708-5.103 3.117-1.92.379-3.828.307-5.685-.333-2.731-.943-4.533-2.816-5.382-5.544-.796-2.557-.678-5.098.514-7.52 1.187-2.413 3.145-3.959 5.79-4.538 2.663-.584 5.204-.256 7.485 1.344 1.418.995 2.374 2.345 2.979 3.948.587 1.555.83 3.17.819 4.825 0 .064-.01.129-.02.245M61.894 14.882c-.457.163-.88.328-1.312.463-.444.139-.9.24-1.345.373-.69.208-1.386.4-2.058.655-.683.26-1.145.746-1.201 1.511-.08 1.108.32 1.71 1.292 2.013.68.213 1.37.198 2.059.075 1.43-.254 2.458-1.31 2.555-2.692.055-.789.01-1.584.01-2.398m5.988 8.262h-.795c-1.466 0-2.931-.004-4.397.005-.191.002-.317-.05-.368-.226-.143-.496-.277-.995-.415-1.493-.018-.069-.033-.138-.063-.263-.097.108-.16.173-.218.243-1.032 1.29-2.385 1.982-4.033 2.127-1.284.113-2.55.043-3.764-.419-1.844-.7-2.893-2.046-3.17-3.975-.138-.965-.08-1.924.288-2.84.519-1.288 1.524-2.087 2.777-2.615 1.237-.52 2.553-.712 3.871-.907.92-.136 1.831-.33 2.745-.503.12-.023.237-.068.353-.11.583-.207 1.029-.537 1.072-1.213.046-.732-.321-1.443-.965-1.685-1.128-.425-2.261-.406-3.319.22-.502.299-.75.813-.89 1.37-.03.118-.05.239-.077.373h-5.117c.02-.856.218-1.652.6-2.402.837-1.638 2.237-2.604 3.964-3.09 2.414-.679 4.86-.671 7.255.072 2.304.715 3.633 2.315 3.935 4.71.053.42.075.847.076 1.27.006 2.69-.003 5.38.007 8.07.003.658.044 1.318.093 1.976.028.38.14.739.445 1.012.06.055.066.17.11.293M17.517 11.92h-5.334c-.157-.381-.28-.77-.468-1.125-.73-1.372-1.97-1.66-3.413-1.33-1.136.262-1.774 1.069-2.173 2.098-.427 1.104-.505 2.256-.457 3.424.04.979.206 1.93.654 2.816.872 1.725 3.253 2.33 4.783 1.21.723-.528 1.01-1.303 1.152-2.138.042-.247.123-.322.375-.32 1.561.011 3.122.005 4.684.006.093 0 .186.008.357.015-.087.52-.13 1.027-.26 1.51-.829 3.058-2.938 4.758-5.977 5.385-1.905.394-3.812.311-5.648-.378C2.879 22 1.059 19.914.322 16.93c-.572-2.316-.396-4.597.645-6.763C2.202 7.601 4.281 6.054 7.073 5.49c1.887-.381 3.768-.294 5.592.378 2.467.908 4.008 2.65 4.668 5.167.075.282.12.571.184.886M112.666 23.144l-6.055-17.372h5.762l3.397 11.345.107-.37 3.084-10.294c.068-.226.082-.54.238-.647.169-.117.474-.048.72-.048 1.495-.002 2.989-.001 4.484-.001h.342c-.276.797-.538 1.563-.805 2.328-1.72 4.932-3.443 9.864-5.156 14.8-.073.207-.163.266-.379.265-1.903-.01-3.806-.006-5.739-.006M24.864 8.48c.067-.095.137-.187.2-.284.62-.958 1.345-1.809 2.427-2.28.966-.423 1.979-.507 3.016-.373.138.018.272.038.271.247-.008 1.472-.004 2.944-.006 4.416 0 .045-.015.09-.013.083-.524 0-1.026-.013-1.527.002-2.158.063-3.663 1.327-4.054 3.428a9.07 9.07 0 0 0-.15 1.602c-.016 2.472-.007 4.945-.007 7.417v.386h-5.559V5.779h5.32v2.678l.082.023M99.804 23.128h5.529V5.773h-5.53zM99.795 4.324h5.536V0h-5.536zM79.2 19.062c-.607.01-1.215.06-1.81-.128-.563-.177-.87-.548-.931-1.125a4.57 4.57 0 0 1-.032-.479c-.002-2.586-.001-5.172-.001-7.758v-.364h3.159V5.745H76.42V0l-5.45 2.162v3.602h-2.294V9.21h2.31v.373c0 2.907-.002 5.814.003 8.721 0 .396.02.793.06 1.186.185 1.875 1.248 3.112 3.087 3.584 1.326.34 2.678.3 4.028.208.479-.031.955-.117 1.424-.177v-4.045H79.2M97.97 10.014c-.258-1.353-.86-2.541-1.957-3.422-1.85-1.485-3.95-1.65-6.147-1.011-1.157.337-2.023 1.135-2.779 2.046-.078.095-.17.18-.256.268a10.37 10.37 0 0 0-.072-.03V0h-5.558v23.128h5.554v-.375c0-3.096-.003-6.193.002-9.29.001-.805.161-1.575.608-2.265.73-1.126 1.796-1.48 3.084-1.297 1.04.149 1.772.87 2.026 2.032.092.419.12.86.12 1.29.01 3.182.006 6.364.006 9.545v.358h5.562v-.269c0-3.663.008-7.326-.008-10.989a10.161 10.161 0 0 0-.185-1.854"/>
    </g>
</svg>
