<svg xmlns="http://www.w3.org/2000/svg" width="128" height="41" viewBox="0 0 128 41">
    <g fill="#FFF" fill-rule="evenodd">
        <path d="M10.677 12.816L9.037 7.59l-1.746 5.226h3.386zm7.145 6.932h-4.985l-.907-2.915H5.945l-.947 2.915H0L7.065.161h3.692l7.065 19.587zM39.272.161l-5.319 19.587H30.05l-3.134-9.66-3.145 9.66h-3.88L14.547.161h4.999l2.532 10.344L25.223.161h3.385l3.132 10.344L34.287.161zM53.362 19.748H40.153V.161h13.21v4.286h-8.438v3.278h7.211v4.285h-7.21v3.453h8.436zM68.692 13.756c0 1.282-.334 2.387-1.006 3.319-.67.932-1.577 1.637-2.719 2.115-1.142.48-2.402.72-3.778.72-1.61 0-3.01-.193-4.2-.579-1.19-.384-2.249-1.052-3.172-2.001l3.066-3.09c.48.484 1.11.835 1.893 1.055.781.22 1.595.329 2.438.329 1.858 0 2.787-.586 2.787-1.76 0-.501-.13-.887-.387-1.155-.258-.27-.685-.444-1.28-.524l-2.346-.336c-1.723-.242-3.025-.82-3.905-1.733-.889-.923-1.333-2.235-1.333-3.937 0-1.19.286-2.254.86-3.19.573-.936 1.394-1.668 2.466-2.196C59.146.264 60.402 0 61.84 0c1.431 0 2.682.186 3.753.558a7.18 7.18 0 0 1 2.805 1.78l-3 3.022c-.497-.502-1.034-.82-1.612-.954-.578-.134-1.27-.202-2.08-.202-.764 0-1.346.184-1.746.552-.398.367-.599.788-.599 1.262 0 .35.128.654.386.914.303.304.747.497 1.334.578l2.345.322c1.707.25 2.982.793 3.826 1.626.506.492.873 1.09 1.1 1.793.227.703.34 1.538.34 2.505M79.038 9.955c0-1.666-.055-2.804-.167-3.413-.11-.608-.29-1.074-.54-1.397-.178-.25-.437-.456-.778-.618a2.644 2.644 0 0 0-1.14-.242c-.409 0-.778.079-1.107.235a2.208 2.208 0 0 0-.8.625c-.16.206-.29.46-.393.76-.103.3-.18.76-.233 1.383-.054.622-.08 1.511-.08 2.667 0 1.146.026 2.03.08 2.653.053.622.13 1.081.233 1.377a2.6 2.6 0 0 0 .393.752c.454.592 1.09.887 1.906.887.827 0 1.467-.295 1.92-.887.249-.35.428-.817.54-1.404.11-.586.166-1.713.166-3.378zm4.772 0v.658c0 1.092-.038 2.033-.113 2.82a8.605 8.605 0 0 1-.539 2.285 5.762 5.762 0 0 1-1.305 1.988 7.515 7.515 0 0 1-2.378 1.646c-.864.371-1.884.557-3.056.557-.79 0-1.502-.083-2.137-.248a6.7 6.7 0 0 1-1.759-.732A7.596 7.596 0 0 1 71 17.706c-.852-.86-1.394-1.836-1.626-2.928-.23-1.093-.346-2.481-.346-4.165V9.296c0-1.683.116-3.074.346-4.17.232-1.098.774-2.077 1.626-2.937.737-.743 1.534-1.294 2.39-1.652C74.246.18 75.256 0 76.419 0c1.172 0 2.188.181 3.05.544.86.362 1.655.911 2.384 1.645a5.751 5.751 0 0 1 1.305 1.996c.283.738.463 1.502.54 2.29.074.789.112 1.729.112 2.821v.659zM103.06 19.748h-4.772v-9.377l-2.759 4.836h-3.052l-2.76-4.836v9.377h-4.771V.161h4.692L93.996 8.8 98.37.161h4.69zM117.485 19.748h-13.21V.161h13.21v4.286h-8.438v3.278h7.213v4.285h-7.213v3.453h8.438zM68.582 34.399c0-.473-.139-.875-.414-1.205-.276-.33-.72-.496-1.334-.496H63.61v3.426h3.225c.605 0 1.048-.17 1.327-.508.28-.34.42-.745.42-1.217m-.28-7.619c0-.436-.135-.81-.407-1.123-.27-.312-.708-.468-1.313-.468H63.61v3.184h2.972c.588 0 1.02-.156 1.3-.468.28-.312.42-.687.42-1.125m5.052 7.897c0 .922-.15 1.74-.453 2.458a5.085 5.085 0 0 1-1.264 1.812 5.447 5.447 0 0 1-1.945 1.12 7.434 7.434 0 0 1-2.397.382h-8.457V20.863h8.057c1.314 0 2.437.236 3.37.706.931.47 1.635 1.133 2.11 1.99.475.855.712 1.848.712 2.977 0 .95-.23 1.75-.693 2.4-.462.65-.942 1.14-1.44 1.471.64.386 1.2.894 1.68 1.525.48.631.72 1.546.72 2.745M83.486 27.17c0-.347-.082-.673-.247-.977a1.857 1.857 0 0 0-.723-.73 2.152 2.152 0 0 0-1.102-.274h-2.713v3.95h2.713c.42 0 .787-.092 1.102-.275.318-.183.558-.424.723-.723a1.97 1.97 0 0 0 .247-.97zm5.798 13.28h-5.518l-3.448-7.294h-1.617v7.293H73.93V20.863h7.697c1.393 0 2.587.293 3.582.88.994.587 1.75 1.36 2.27 2.317.52.96.778 1.993.778 3.104 0 1.226-.307 2.277-.923 3.15-.615.874-1.362 1.53-2.24 1.968l4.19 8.167zM98.924 30.656c0-1.665-.055-2.802-.166-3.412-.112-.608-.292-1.074-.54-1.396-.178-.251-.438-.457-.78-.618a2.645 2.645 0 0 0-1.14-.243c-.408 0-.777.079-1.107.236a2.193 2.193 0 0 0-.799.625c-.16.206-.29.458-.394.759-.102.3-.18.76-.232 1.383-.054.623-.08 1.512-.08 2.666 0 1.147.026 2.032.08 2.654.053.622.13 1.08.232 1.377.103.295.235.546.394.753.453.59 1.088.886 1.906.886.827 0 1.467-.296 1.92-.886.248-.35.428-.818.54-1.405.11-.587.166-1.712.166-3.379zm4.772 0v.659c0 1.092-.038 2.033-.113 2.82a8.586 8.586 0 0 1-.54 2.284 5.741 5.741 0 0 1-1.304 1.989c-.72.726-1.512 1.275-2.378 1.645-.866.372-1.884.558-3.056.558-.79 0-1.503-.083-2.138-.249a6.664 6.664 0 0 1-1.758-.73 7.567 7.567 0 0 1-1.524-1.224c-.852-.86-1.395-1.836-1.625-2.928-.231-1.092-.347-2.481-.347-4.165v-1.316c0-1.684.116-3.075.347-4.172.23-1.097.773-2.075 1.625-2.935.736-.744 1.533-1.294 2.39-1.653.857-.358 1.866-.537 3.03-.537 1.172 0 2.188.182 3.049.544.861.363 1.656.912 2.385 1.646a5.744 5.744 0 0 1 1.304 1.994c.284.74.464 1.504.54 2.292.075.787.113 1.728.113 2.82v.658z"/>
        <path d="M117.867 34.459c0 1.28-.335 2.387-1.006 3.318-.671.93-1.577 1.636-2.72 2.115-1.141.48-2.4.719-3.778.719-1.609 0-3.008-.193-4.2-.577-1.19-.385-2.247-1.052-3.171-2.002l3.066-3.09c.48.484 1.11.835 1.891 1.056a9.052 9.052 0 0 0 2.441.328c1.857 0 2.786-.587 2.786-1.76 0-.502-.13-.887-.387-1.156-.258-.268-.684-.443-1.28-.523l-2.346-.336c-1.724-.242-3.025-.82-3.906-1.733-.888-.922-1.332-2.235-1.332-3.937 0-1.19.286-2.254.86-3.19.572-.936 1.395-1.668 2.465-2.196 1.072-.529 2.327-.793 3.766-.793 1.43 0 2.681.186 3.753.558a7.182 7.182 0 0 1 2.805 1.78l-2.999 3.022c-.497-.501-1.036-.82-1.613-.954s-1.27-.201-2.08-.201c-.764 0-1.346.184-1.746.55-.4.369-.6.789-.6 1.263 0 .35.13.654.387.914.303.305.747.497 1.333.578l2.346.322c1.707.25 2.982.792 3.826 1.626.507.493.873 1.09 1.1 1.793.226.703.339 1.538.339 2.506M127.842 36.501c0 2.42-1.946 4.381-4.348 4.381-2.4 0-4.346-1.961-4.346-4.38 0-2.421 1.946-4.383 4.346-4.383 2.402 0 4.348 1.962 4.348 4.382"/>
    </g>
</svg>
