<svg xmlns="http://www.w3.org/2000/svg" width="53" height="35" viewBox="0 0 53 35">
    <path fill="#FFF" fill-rule="nonzero" d="M13.774 6.987h6.887V.001H0v34.935h6.887V20.961h10.331v-6.986H6.887V6.987h6.887zM53 35V0h-6.903v34.936H53V35zM31.174 11.82c-6.302 0-11.411 5.17-11.411 11.55 0 6.38 5.109 11.55 11.411 11.55 6.303 0 11.411-5.17 11.411-11.55 0-6.38-5.108-11.55-11.411-11.55zm-.121 17.046c-2.956 0-5.352-2.425-5.352-5.416 0-2.992 2.396-5.417 5.352-5.417 2.956 0 5.351 2.425 5.351 5.417 0 2.991-2.395 5.416-5.351 5.416z"/>
</svg>
