<svg xmlns="http://www.w3.org/2000/svg" width="36" height="48" viewBox="0 0 36 48">
    <g fill="#FFF" fill-rule="evenodd">
        <path d="M31.805 7.88c-2.178-.005-3.992-1.794-3.987-3.934C27.823 1.814 29.656 0 31.808 0c2.163-.001 3.969 1.795 3.969 3.95 0 2.169-1.784 3.934-3.972 3.93M15.434 29.972c-4.585.026-8.14-3.88-7.888-7.855-.302-3.712 3.107-7.871 7.901-7.836 4.417.033 7.887 3.51 7.899 7.905.01 4.264-3.554 7.762-7.912 7.786m15.644-9.055c-.63-8.518-8.116-15.414-16.949-14.389C6.622 7.398.327 13.574.116 21.042-.104 28.796.05 36.56.08 44.32c.005 1.535 1.293 2.93 2.806 3.254 2.493.536 4.578-1.163 4.61-3.805.03-2.662.006-5.325.006-8.031.141-.02.181-.038.207-.026.301.144.598.297.902.436 5.957 2.741 11.655 2.377 16.818-1.738 4.303-3.43 6.057-7.996 5.65-13.493"/>
    </g>
</svg>
