<svg xmlns="http://www.w3.org/2000/svg" xmlns:xlink="http://www.w3.org/1999/xlink" width="160" height="100" viewBox="0 0 160 100">
    <defs>
        <path id="a" d="M0 0h160v100H0z"/>
    </defs>
    <g fill="none" fill-rule="evenodd">
        <mask id="b" fill="#fff">
            <use xlink:href="#a"/>
        </mask>
        <use fill="#000" fill-rule="nonzero" xlink:href="#a"/>
        <path fill="#FFF" fill-rule="nonzero" d="M126.117 60.656L121.57 45.82l-4.676 14.836h-5.757l7.572-21.28h5.915L132 60.657h-5.883zm-20.733-7.703h-1.718v7.703h-5.214v-21.28h6.869c5.21 0 7.946 2.486 7.946 6.57 0 4.588-3.05 7.007-7.883 7.007zm-.13-9.365h-1.588v5.25h1.718c1.809 0 2.573-1.29 2.573-2.766 0-1.102-.573-2.484-2.702-2.484zM90.567 60.656l-4.231-7.671h-.317v7.671H80.8v-21.28h7.032c5.216 0 7.79 2.769 7.79 6.696 0 2.794-1.305 5.122-3.974 6.223l5.085 8.361h-6.166zm-2.799-17.068h-1.749V48.9h1.56c1.748 0 2.764-1.288 2.764-2.796 0-1.351-.89-2.515-2.575-2.515zm-22.706-4.211h12.594v4.337H70.34v4.117h6.425v4.367H70.34v4.12h7.793v4.338H65.06v-21.28zm-8.044 12.79h-5.629v8.49H46.14v-21.28h5.25v8.55h5.628v-8.55h5.246v21.28h-5.246v-8.49zM39.08 47.99c3.497 1.101 4.771 2.892 4.771 6.316 0 3.961-3.054 6.695-7.413 6.695-2.954 0-5.53-.692-7.438-1.507l1.209-4.683c2.037.784 4.201 1.35 6.043 1.35 1.589 0 2.162-.725 2.162-1.727 0-.628-.32-1.351-1.34-1.729-.854-.316-1.998-.598-3.147-.946-3.052-.972-4.548-2.859-4.548-5.842 0-2.486.923-4.65 3.186-5.943 1.206-.69 2.696-.973 4.258-.973 2.162 0 4.452.535 6.294 1.413l-1.176 4.433c-1.843-.597-3.846-1.069-5.183-1.069-1.272 0-2.002.816-2.002 1.667 0 .659.443 1.35 1.395 1.697.956.345 1.783.503 2.93.848z" mask="url(#b)" opacity=".5"/>
    </g>
</svg>
