<svg xmlns="http://www.w3.org/2000/svg" xmlns:xlink="http://www.w3.org/1999/xlink" width="160" height="100" viewBox="0 0 160 100">
    <defs>
        <path id="a" d="M0 0h160v100H0z"/>
    </defs>
    <g fill="none" fill-rule="evenodd">
        <mask id="b" fill="#fff">
            <use xlink:href="#a"/>
        </mask>
        <use fill="#000" fill-rule="nonzero" xlink:href="#a"/>
        <g fill="#FFF" mask="url(#b)" opacity=".5">
            <path d="M93.805 33.88c-2.178-.005-3.992-1.794-3.987-3.934.005-2.132 1.838-3.945 3.99-3.946 2.163-.001 3.969 1.795 3.969 3.95 0 2.169-1.784 3.934-3.972 3.93M77.434 55.972c-4.585.026-8.14-3.88-7.888-7.855-.302-3.712 3.107-7.871 7.901-7.836 4.417.033 7.887 3.51 7.899 7.905.01 4.264-3.554 7.762-7.912 7.786m15.644-9.055c-.63-8.518-8.116-15.414-16.949-14.389-7.507.87-13.802 7.046-14.013 14.514-.22 7.754-.066 15.518-.037 23.278.005 1.535 1.293 2.93 2.806 3.254 2.493.536 4.578-1.163 4.61-3.805.03-2.662.006-5.325.006-8.031.141-.02.181-.038.207-.026.301.144.598.297.902.436 5.957 2.741 11.655 2.377 16.818-1.738 4.303-3.43 6.057-7.996 5.65-13.493"/>
        </g>
    </g>
</svg>
