<svg xmlns="http://www.w3.org/2000/svg" xmlns:xlink="http://www.w3.org/1999/xlink" width="160" height="100" viewBox="0 0 160 100">
    <defs>
        <path id="a" d="M0 0h160v100H0z"/>
    </defs>
    <g fill="none" fill-rule="evenodd">
        <mask id="b" fill="#fff">
            <use xlink:href="#a"/>
        </mask>
        <use fill="#000" fill-rule="nonzero" xlink:href="#a"/>
        <path fill="#FFF" fill-rule="nonzero" d="M75.278 65.919c-.686.008-3.665-.17-4.591-.262-1.418-.157-2.598-.33-3.804-.996v-3.888c1.226-.29 2.593-.515 3.748-.556 1.25-.064 5.456-.072 6.568-.064 2.058.078 2.806-.683 2.878-1.851.054-.679.032-1.343.01-2.014-.025-.976-.83-1.544-2.24-1.816-1.842-.29-6.888-1.092-9.089-1.947-.706-.259-1.38-.581-1.993-1.023-1.324-1.013-2.387-2.407-2.29-5.677.407-3.985.672-5.916 2.187-8.278 1.103-1.55 2.976-3.408 7.09-3.547.691 0 4.1.058 4.37.088 6.912.486 9.145 5.507 9.178 8.652.048.867.23 11.882.237 13.573.002.504.097 2.94-.588 4.624-.774 2.227-2.9 4.707-7.133 4.94-.54.063-3.61.052-4.538.042zm4.776-16.317c.01-2.499.05-5.794-.072-6.887-.046-.736-.274-2.384-1.972-2.902-.368-.111-3.035-.208-3.402-.133-1.26.29-1.926 1.23-2.227 2.673-.18.986-.344 2.291-.25 3.357.029 1.14.637 1.95 1.403 2.156.532.143 2.937.567 3.589.712 1.004.223 2.01.451 2.93 1.024zM48 50.145c.574-.17 2.042-.439 3.129-.53 3.06-.278 6.164-.123 8.25.05 1.504.16 3.09.31 4.429 1.092v4.398c-1.64.398-2.59.487-3.837.565-1.454.135-5.164.123-8.033-.146-1.222-.15-2.403-.19-3.938-.975 0-1.23.003-2.57 0-4.454zm51.735 15.847c-.686.008-3.665-.17-4.59-.262-1.42-.157-2.599-.33-3.805-.996v-3.888c1.226-.29 2.593-.515 3.749-.555 1.25-.065 5.455-.073 6.567-.065 2.059.078 2.806-.683 2.879-1.85.053-.68.031-1.344.008-2.015-.024-.976-.828-1.543-2.24-1.815-1.84-.29-6.887-1.093-9.088-1.948-.706-.259-1.38-.58-1.993-1.023-1.324-1.013-2.387-2.407-2.29-5.677.408-3.985.672-5.916 2.188-8.278 1.102-1.549 2.975-3.408 7.089-3.547.692 0 4.101.058 4.37.088 6.912.486 9.146 5.507 9.178 8.652.049.867.23 11.882.237 13.574.003.504.097 2.939-.588 4.623-.774 2.227-2.9 4.708-7.132 4.94-.541.063-3.612.053-4.539.042zm4.776-16.317c.01-2.498.05-5.794-.072-6.886-.046-.737-.274-2.384-1.972-2.903-.368-.111-3.035-.208-3.402-.133-1.259.29-1.925 1.231-2.227 2.673-.18.987-.344 2.291-.25 3.357.03 1.14.637 1.95 1.403 2.156.533.143 2.938.567 3.589.712 1.004.224 2.011.451 2.931 1.024z" mask="url(#b)" opacity=".5"/>
    </g>
</svg>
