<svg xmlns="http://www.w3.org/2000/svg" width="18" height="16" viewBox="0 0 18 16">
    <g fill="none" fill-rule="evenodd">
        <path d="M-1-2h20v20H-1z"/>
        <g fill="#22A3FD" fill-rule="nonzero">
            <path d="M15.667.5H2.333C1.413.5.667 1.25.667 2.168v2.5c0 .46.372.834.833.834v8.333c0 .92.747 1.667 1.667 1.667h11.666c.92 0 1.667-.748 1.667-1.667V5.501c.46 0 .833-.373.833-.833v-2.5c0-.919-.746-1.667-1.666-1.667zm0 1.667v1.667H2.333V2.167h13.334zm-.834 11.667H3.167V5.501h11.666v8.333z"/>
            <path d="M6.5 6.334h5v2.5h-5z"/>
        </g>
    </g>
</svg>
