<svg xmlns="http://www.w3.org/2000/svg" width="20" height="20" viewBox="0 0 20 20">
    <g fill="#FCC21B" fill-rule="nonzero">
        <path d="M10 4.74a5.259 5.259 0 1 0 0 10.519A5.259 5.259 0 0 0 10 4.74zM8.869 3.783h2.264a.322.322 0 0 0 .3-.431L10.3.286a.319.319 0 0 0-.6 0L8.567 3.353a.322.322 0 0 0 .038.294c.06.086.16.136.264.136zM15.197 6.405a.316.316 0 0 0 .281.089.323.323 0 0 0 .235-.181l1.368-2.97a.32.32 0 0 0-.425-.426l-2.968 1.37a.32.32 0 0 0-.094.518l1.603 1.6zM19.716 9.7l-3.07-1.131a.322.322 0 0 0-.293.037.315.315 0 0 0-.136.261l.002 2.264a.32.32 0 0 0 .431.299l3.069-1.132a.32.32 0 0 0 .21-.301.325.325 0 0 0-.213-.297zM15.713 13.688a.32.32 0 0 0-.516-.093l-1.602 1.602a.32.32 0 0 0 .092.517l2.97 1.369a.318.318 0 0 0 .423-.425l-1.368-2.97zM11.131 16.216l-2.264.001a.317.317 0 0 0-.26.138.325.325 0 0 0-.04.292L9.7 19.716c.047.125.166.209.3.209a.321.321 0 0 0 .3-.21l1.133-3.068a.322.322 0 0 0-.302-.431zM4.803 13.595a.32.32 0 0 0-.516.092l-1.368 2.97a.317.317 0 0 0 .065.36.318.318 0 0 0 .36.064l2.97-1.37a.32.32 0 0 0 .092-.516l-1.603-1.6zM3.464 11.452a.32.32 0 0 0 .32-.32l-.001-2.265a.32.32 0 0 0-.43-.3L.284 9.7a.32.32 0 0 0 0 .6l3.07 1.131c.037.014.073.02.11.02zM4.29 6.313a.32.32 0 0 0 .516.092l1.6-1.602a.321.321 0 0 0-.093-.516L3.34 2.92a.318.318 0 0 0-.36.065.318.318 0 0 0-.064.36L4.29 6.313z"/>
    </g>
</svg>
