<svg xmlns="http://www.w3.org/2000/svg" width="47" height="29" viewBox="0 0 47 29">
    <g fill="#E61E24" fill-rule="nonzero">
        <path d="M.564 27.724l1.428-8.064c.012-.096.084-.18.216-.18H2.4c.096 0 .168.048.204.12l2.64 5.664h.036L7.92 19.6c.036-.072.096-.12.204-.12h.192c.132 0 .204.084.216.18l1.416 8.064c.036.168-.06.276-.216.276H8.64c-.108 0-.204-.096-.228-.18l-.708-4.548h-.036l-2.1 4.716c-.024.072-.096.132-.204.132h-.216c-.108 0-.168-.06-.204-.132L2.82 23.272h-.036l-.696 4.548a.232.232 0 0 1-.216.18H.792c-.156 0-.252-.108-.228-.276zM10.74 28c-.18 0-.276-.156-.204-.312l3.732-8.076c.036-.072.096-.132.204-.132h.12c.12 0 .168.06.204.132l3.696 8.076c.072.156-.024.312-.204.312h-1.044c-.18 0-.264-.072-.348-.24l-.588-1.296H12.72l-.588 1.296a.362.362 0 0 1-.348.24H10.74zm2.568-2.868h2.412l-1.2-2.64h-.036l-1.176 2.64zm8.532 2.988c-1.512 0-2.292-.636-2.64-.936-.12-.096-.168-.168-.06-.36l.432-.744a.278.278 0 0 1 .408-.084c.492.372 1.032.744 1.812.744.624 0 1.092-.408 1.092-.924 0-.612-.516-1.032-1.524-1.44-1.128-.456-2.256-1.176-2.256-2.592 0-1.068.792-2.304 2.7-2.304 1.224 0 2.16.624 2.4.804.12.072.156.276.072.396l-.456.684c-.096.144-.276.24-.42.144-.516-.324-1.008-.66-1.668-.66-.684 0-1.056.384-1.056.84 0 .564.444.948 1.416 1.344 1.164.468 2.508 1.164 2.508 2.712 0 1.236-1.068 2.376-2.76 2.376zm6.54 0c-1.512 0-2.292-.636-2.64-.936-.12-.096-.168-.168-.06-.36l.432-.744a.278.278 0 0 1 .408-.084c.492.372 1.032.744 1.812.744.624 0 1.092-.408 1.092-.924 0-.612-.516-1.032-1.524-1.44-1.128-.456-2.256-1.176-2.256-2.592 0-1.068.792-2.304 2.7-2.304 1.224 0 2.16.624 2.4.804.12.072.156.276.072.396l-.456.684c-.096.144-.276.24-.42.144-.516-.324-1.008-.66-1.668-.66-.684 0-1.056.384-1.056.84 0 .564.444.948 1.416 1.344 1.164.468 2.508 1.164 2.508 2.712 0 1.236-1.068 2.376-2.76 2.376zm4.248-.348v-7.944c0-.12.096-.228.228-.228h4.884c.132 0 .228.108.228.228v.984c0 .12-.096.228-.228.228h-3.552v1.968h2.964c.12 0 .228.108.228.228v.996a.228.228 0 0 1-.228.228h-2.964v2.1h3.552c.132 0 .228.108.228.228v.984c0 .12-.096.228-.228.228h-4.884a.228.228 0 0 1-.228-.228zm6.288-3.96c0-2.4 1.932-4.332 4.332-4.332 1.212 0 2.088.384 2.904 1.116.108.096.108.24.012.336l-.732.756c-.084.096-.204.096-.3 0a2.839 2.839 0 0 0-1.848-.708c-1.536 0-2.676 1.284-2.676 2.796 0 1.5 1.152 2.772 2.688 2.772.72 0 1.332-.276 1.836-.684a.221.221 0 0 1 .3 0l.744.768c.096.084.072.24-.012.324-.816.792-1.848 1.164-2.916 1.164-2.4 0-4.332-1.908-4.332-4.308z"/>
        <g transform="translate(10 .23)">
            <circle cx="14.769" cy="5.308" r="1"/>
            <circle cx="18.462" cy="5.308" r="1"/>
            <path d="M25.834 1.437l-.02.004c-.143-.429-.589-.749-1.141-.749h-23.5c-.552 0-.998.32-1.141.749l-.02-.004V7.63c-.05.768.055 1.3.318 1.596.394.444 1.02.697 1.72.697h21.746c.7 0 1.326-.254 1.72-.698.263-.296.369-.828.318-1.596V1.437zM2.444 7.872V2.744h20.958v5.128H2.444z"/>
            <path d="M5.538 4.385H12v1.846H5.538zM3.692 9h3.692v1.846H3.692zM18.462 9h3.692v1.846h-3.692z"/>
        </g>
    </g>
</svg>
