<svg xmlns="http://www.w3.org/2000/svg" width="20" height="18" viewBox="0 0 20 18">
    <g fill="none" fill-rule="evenodd">
        <path d="M-1-1h19.895v20H-1z"/>
        <g fill="#404040" fill-rule="nonzero">
            <path d="M2.316 17.333h9.118c.915 0 1.658-.747 1.658-1.666v-2.5h-1.658v2.5H2.316V2.333h9.118v2.5h1.658v-2.5c0-.918-.743-1.666-1.658-1.666H2.316C1.4.667.658 1.415.658 2.333v13.334c0 .919.743 1.666 1.658 1.666z"/>
            <path d="M15.507 5.077l-1.172 1.18 1.904 1.91H9.12v1.666h7.113l-1.898 1.912 1.174 1.177 3.901-3.93z"/>
        </g>
    </g>
</svg>
