<svg xmlns="http://www.w3.org/2000/svg" width="38" height="40"
     viewBox="0 0 38 40">
  <path fill="#FFF" fill-rule="evenodd"
        d="M15.856 10.891c-.237.13-.424.272-.561.425-.158.183-.271.384-.34.605-.069.22-.133.374-.192.46a.213.213 0 0 0-.03-.09c-.02-.039-.049-.029-.088.028.079.04.118.083.118.127a.21.21 0 0 1-.059.135.449.449 0 0 0-.089.178 3.6 3.6 0 0 0-.103.166.478.478 0 0 0-.074.157.125.125 0 0 1-.133.027c-.049-.017-.083-.023-.103-.016a.9.9 0 0 0-.133.16.238.238 0 0 1-.192.112c.04.031.03.173-.03.425-.058.252-.127.48-.206.683-.079.204-.157.274-.236.212-.06.042-.089.107-.089.196 0 .11.02.227.06.347.039.12.049.205.029.256-.02.118-.069.24-.148.366-.078.127-.157.181-.236.163v-.033c0-.045.02-.112.06-.203.038-.091.048-.156.029-.194l-.148.35c-.02.029-.01.054.03.074.039.02.049.055.03.106l.088.07c-.06.087-.089.075-.089-.036-.079.115-.128.21-.148.283-.02.03-.073.087-.162.172-.089.086-.103.186-.044.3a.416.416 0 0 1 .147-.084c.099-.034.148.027.148.183.06.002.089.025.089.07 0 .044-.02.095-.06.153v.167c0 .423-.127.756-.383 1a.469.469 0 0 1-.192.134.403.403 0 0 0-.192.167c-.04.08-.069.18-.089.299-.02.118 0 .2.06.247.058-.11.088-.276.088-.5v-.066c.157-.055.236.007.236.185 0 .134-.01.237-.03.311l-.117.209c-.02.118-.03.3-.03.545-.06.11-.108.295-.148.554.118.07.109.174-.03.312l-.029.379c.02.104-.02.208-.118.31.138.107.128.255-.03.446v.2c0 .425-.019.678-.058.76a2.074 2.074 0 0 1-.325.185.741.741 0 0 0-.06.223l-.088.334c.04-.059.099-.12.177-.182a.979.979 0 0 0 .207-.227l.06.247c0 .156-.09.3-.267.433.06.067.089.18.089.336 0 .09-.03.28-.089.57v.117c0 .033-.02.08-.059.14 0 .022-.034.006-.103-.046-.069-.053-.153-.027-.251.077a.342.342 0 0 1-.03-.157c0-.157.06-.291.178-.402l-.118.044a.264.264 0 0 0-.163.161.811.811 0 0 0-.044.285c.02.038.079.06.177.069-.02.052-.069.137-.148.257.118.023.178.045.178.068 0 .022-.045.072-.133.15a.774.774 0 0 0-.192.24c.04-.06.024.025-.045.253l-.103.342c-.02.074-.034.153-.044.235-.01.082-.025.16-.044.236-.02.479-.06.87-.119 1.173a1.65 1.65 0 0 1-.442.829c.078.082.137.216.177.403.039.187.078.317.118.392.059-.09.088-.18.088-.27 0-.113-.039-.221-.118-.325.197-.279.296-.272.296.02 0 .202-.045.483-.133.843-.089.36-.133.574-.133.642-.04.15-.07.302-.089.456-.02.154-.049.306-.088.457v.067c0 .045.02.082.059.112.039.029.059.055.059.077 0 .023-.089.114-.266.275.059.067.089.133.089.2a.448.448 0 0 1-.045.17 1.48 1.48 0 0 0-.074.216c0 .067.02.166.06.296.039.13.049.245.029.343-.02.053-.05.12-.089.204a.683.683 0 0 0-.059.294v.102c0 .067.01.136.03.207a.9.9 0 0 1 .03.241 5.2 5.2 0 0 1-.06.21 2.61 2.61 0 0 0-.059.244l-.03.214c.06.156.02.296-.117.42-.158.088-.207.199-.148.332v.135a1.64 1.64 0 0 1-.207.272.736.736 0 0 0-.147.214c-.04.084-.07.198-.089.342-.098-.027-.167-.032-.206-.015-.04.016-.08.078-.119.185-.039.107-.088.207-.147.3a.479.479 0 0 1-.133.174c-.069.063-.133.13-.192.2a.526.526 0 0 0-.03.182c0 .023.005.072.015.147a.3.3 0 0 1-.044.205c-.02.077-.079.192-.177.348a2.167 2.167 0 0 0-.207.394.926.926 0 0 0-.044.206c-.01.083-.064.18-.163.29a.707.707 0 0 1-.177.145.286.286 0 0 1-.236 0c-.079-.035-.128-.082-.148-.142a2.573 2.573 0 0 0-.206.31.806.806 0 0 1-.177.23.666.666 0 0 1-.266.115c-.197.062-.325.055-.384-.022-.06-.078-.128-.225-.207-.442a4.258 4.258 0 0 1-.088-.957c0-.663.049-1.301.147-1.914l.148-.713v-.068a.245.245 0 0 0-.044-.136c-.03-.045-.045-.079-.045-.101.02-.1.05-.238.089-.414a7.77 7.77 0 0 0 .089-.448c.02-.076.059-.172.118-.288.059-.115.098-.211.118-.288v-.034c0-.046-.015-.125-.045-.239a.577.577 0 0 1-.014-.284.85.85 0 0 1 .074-.253c.049-.123.073-.195.073-.218 0-.114-.014-.233-.044-.358a.792.792 0 0 1-.015-.337 4.5 4.5 0 0 1 .118-.492c.06-.206.109-.42.148-.64.04-.198.069-.437.089-.718.02-.282.059-.513.118-.696l.03-.285a.372.372 0 0 1 .088-.308l-.06-.113a.503.503 0 0 0 .119-.32v-.306a.93.93 0 0 1 .03-.285c.02-.076.063-.172.132-.29.07-.117.113-.225.133-.324.04-.174.069-.356.089-.545.02-.19.03-.318.03-.386.039-.446.098-.798.176-1.055.217-.626.335-.987.355-1.085.02-.098.034-.211.044-.34.01-.128.03-.243.06-.344.029-.102.093-.228.191-.377 0 .113.03.136.089.07-.099-.055-.148-.15-.148-.286 0-.136.034-.29.103-.463.07-.172.113-.284.133-.337-.098-.077-.059-.193.118-.348.158-.102.207-.244.148-.426.02-.075.03-.18.03-.316 0-.271.049-.481.147-.63-.059-.046-.089-.126-.089-.239 0-.09.03-.22.089-.387.06-.168.098-.312.118-.432.04-.149.069-.317.089-.505.02-.187.03-.315.03-.382 0-.068.034-.187.103-.358.068-.17.113-.304.132-.401l.207-.613c.079-.207.138-.402.177-.584.04-.182.07-.322.089-.419.04-.103.108-.25.207-.441.098-.19.157-.334.177-.43-.138-.044-.118-.14.059-.29-.04-.1-.01-.188.088-.266.08-.183.118-.32.118-.41 0-.09-.059-.115-.177-.075-.118.039-.206.08-.265.122-.512.306-.886.566-1.122.781-.394.382-.768.69-1.122.924-.158.121-.325.27-.502.444-.178.174-.325.316-.443.425-.532.411-1.063.87-1.595 1.376l-1.063.925c-.137.118-.408.375-.812.773-.403.398-.743.647-1.018.747-.236.085-.423.06-.561-.076a5.405 5.405 0 0 1-.827-1.063l-.384-.528a7.815 7.815 0 0 1-.65-.926C.03 18.365 0 18.19 0 17.955c0-.35.148-.577.443-.68.177-.061.384-.214.62-.459a8.54 8.54 0 0 1 .56-.542c.316-.27.68-.603 1.093-.998l.59-.512.355-.36.266-.124.236-.32a1.83 1.83 0 0 1 .325-.247 2.63 2.63 0 0 0 .236-.147c.079-.072.172-.166.28-.282.109-.116.222-.205.34-.267.276-.182.453-.297.532-.346l.398-.284c.207-.147.36-.283.458-.406.276-.271.522-.476.738-.614.02-.006.177-.159.473-.458.039.01.088.006.147-.013.079-.025.148-.092.207-.202l.088-.028c.158-.05.256-.138.296-.263a.4.4 0 0 0 .147-.081.302.302 0 0 1 .089-.062c.02-.006.04.112.059.354a.419.419 0 0 0 .103-.253.388.388 0 0 1 .133-.262c.06-.041.099-.037.118.013.02.05.05.058.089.023-.118-.098-.094-.207.074-.328.167-.12.359-.225.575-.316.217-.09.365-.158.443-.205v-.068c0-.112.06-.187.178-.223l.324-.169a.921.921 0 0 0 .384-.22c.158-.093.305-.2.443-.32s.285-.227.443-.32l.236-.072c.138-.198.226-.315.266-.349a2.35 2.35 0 0 1 .605-.35c.227-.09.399-.176.517-.256.02.15.05.218.088.206a.897.897 0 0 0 .148-.194c.06-.095.118-.174.177-.236.06-.195.168-.293.325-.296.02.016.05.018.089.007.098-.03.177-.109.236-.236l.472-.14c.06-.107.138-.163.236-.17.06-.018.114.005.163.067.049.063.098.098.147.105.05.007.123-.047.222-.164-.276.037-.325-.014-.148-.155.06-.17.148-.186.266-.045-.02.006-.025.04-.015.103.01.063.025.103.045.119.039-.1.044-.172.014-.219-.03-.046.005-.105.104-.178a.397.397 0 0 1 .147-.077c.079-.023.128.012.148.105.02.093.03.194.03.304a.634.634 0 0 0 .103-.327c.01-.134.044-.232.103-.293a.526.526 0 0 1 .236-.134l.296-.054a.546.546 0 0 0 .295-.217c.02.082.04.141.059.18.02.037.059.048.118.03.197-.057.315-.13.354-.217.04-.088.03-.188-.03-.302.119-.121.198-.166.237-.133.04.032.079.042.118.03.158-.088.305-.152.443-.192l.118.064c.06-.126.138-.192.236-.198.02-.006.138-.116.355-.33.098-.07.201-.127.31-.169.108-.041.192-.07.25-.087.06-.017.222-.074.488-.17.266-.097.448-.202.546-.316.04.14.079.214.118.225.04.01.128-.037.266-.14a.516.516 0 0 1-.148-.007c-.078-.01-.108-.028-.088-.055.177-.2.423-.344.738-.433l.531-.116c.04-.01.133-.053.28-.126.148-.073.281-.126.4-.158.275-.077.324.016.147.278l.06-.016a.264.264 0 0 0 .191-.197c.03-.104.054-.164.074-.18.02-.016.059.042.118.175a.293.293 0 0 0 .089-.216c0-.085.03-.146.088-.184.02-.027.079-.054.177-.08l.473-.098c.059-.038.128-.083.206-.136a.798.798 0 0 1 .237-.113.528.528 0 0 1 .206-.008c.079.01.148.007.207-.01.098-.195.177-.206.236-.032l.177-.048c0 .105.05.124.148.055.098-.027.128-.098.089-.214.255-.174.462-.283.62-.325.078-.021.236-.043.472-.064.098-.027.187-.04.266-.04a.802.802 0 0 0 .236-.11.8.8 0 0 1 .236-.111c.079-.042.197-.084.354-.126.158-.042.266-.06.325-.055.079 0 .163.024.251.074.089.049.163.076.222.081.02.016.049.018.088.008.079-.021.172-.067.28-.137a.987.987 0 0 1 .252-.13.605.605 0 0 1 .28.004.57.57 0 0 0 .222.02c.059-.017.118-.105.177-.265.098.14.147.24.147.302 0 .083-.03.158-.088.225-.06.068-.089.133-.089.195 0 .082.025.138.074.166.05.028.074.053.074.073 0 .021-.079.084-.236.188a.241.241 0 0 1-.163.044.241.241 0 0 0-.162.043c-.118.053-.172.088-.162.106.01.018-.015.066-.074.145a.955.955 0 0 0-.148.164l-.148.196c-.02.026-.068.05-.147.071-.02.006-.064.013-.133.02a.229.229 0 0 0-.162.092c.02.016.03.065.03.148 0 .083-.035.17-.104.263a.43.43 0 0 1-.222.17c-.098.027-.177-.045-.236-.217a.738.738 0 0 1-.118.111c-.06.048-.06.063 0 .047 0 .104-.05.191-.148.26l-.118-.061a.79.79 0 0 0-.443.28.55.55 0 0 0-.088.197c-.02.079-.089.145-.207.199-.02.026-.04.021-.059-.015-.02-.036-.04-.052-.059-.046a1.054 1.054 0 0 0-.384.202c-.04.01-.108.077-.207.2-.098.122-.167.189-.206.2l-.03.008c-.04.011-.108-.006-.206-.052-.099-.046-.217-.007-.355.116l.06.11c0 .063-.08.117-.237.162a2.41 2.41 0 0 1-.207.043c-.098.017-.167.053-.206.106.059.047.162.049.31.007.147-.042.25-.03.31.038a.675.675 0 0 1 .413-.339l.266-.043c.177-.05.305-.192.384-.424.118-.012.187.053.206.194.02.141.08.219.178.233 0 .126-.04.2-.119.222-.059.017-.123-.002-.191-.056a.359.359 0 0 1-.133-.198.662.662 0 0 0-.237.224c.119.135.06.267-.177.398-.236.13-.541.27-.915.42-.06.102-.138.156-.236.163a.328.328 0 0 1-.207-.067c-.059.038-.148.117-.266.236-.118.119-.226.224-.324.317l-.089-.261c-.02.07-.054.175-.103.316-.05.142-.109.26-.177.355a1.127 1.127 0 0 1-.251.249c-.02.027-.06.049-.119.066l-.354.073a.779.779 0 0 0-.25.138.734.734 0 0 1-.222.13 1.217 1.217 0 0 1-.414.106.887.887 0 0 0-.413.139c-.394.267-.64.437-.738.51-.276.169-.65.367-1.122.597l-.738.386c-.06.04-.222.154-.488.344-.265.19-.506.319-.723.385-.177.055-.315.043-.413-.036a.665.665 0 0 1-.163.312 1.152 1.152 0 0 1-.25.176 7.178 7.178 0 0 0-.266.148c-.825.477-1.225.704-1.2.68-.101.073-.262.17-.483.292zM26.217 1.16c.035.028.035.055 0 .083a.26.26 0 0 1-.078.049l.078-.132zm-.874.488a.556.556 0 0 1 .078.09c.035.046.07.046.104 0-.017-.014-.043-.016-.078-.007v-.055c0-.093-.034-.102-.104-.028zm.593-.08c.07.037.139.018.208-.056a.336.336 0 0 0-.13-.034c-.035 0-.061.03-.078.09zm-3.082 1.13c-.009.007-.013.034-.013.08.017.033.03.046.04.039l-.027-.12zm.56-.241c.004.013.024.019.058.019.035-.02.05-.035.046-.048l-.104.029zm-.863.394c-.008.007-.013.034-.013.08.018.033.03.046.04.04l-.027-.12zm6.207-1.684c-.008.007-.013.033-.013.079.018.032.03.044.04.037l-.027-.116zM18.161 4.818c-.009-.002-.013-.027-.013-.074.017-.044.03-.064.039-.062l-.026.136zm-.013 0c.008.003.022-.018.039-.061 0-.048-.004-.073-.013-.075l-.026.136zm9.89-3.03c-.014-.002-.033.015-.06.05.01.034.02.051.033.052l.026-.103zm-7.651 2.65c-.005.016.006.03.032.04.044-.03.067-.054.072-.07l-.104.03zm7.284-1.932a.788.788 0 0 0-.052-.206c-.122.051-.182.123-.182.215 0 .036.021.063.065.078.043.016.1.014.169-.005v-.082zm-7.072 2.042c-.013.008-.023.032-.032.073.017.023.032.03.045.022l-.013-.095zm5.034-1.233c.035.027.07.036.104.026.07-.019.104-.103.104-.25l-.052.042a1.136 1.136 0 0 0-.156.182zM15.29 6.345a.441.441 0 0 0 .175-.01.7.7 0 0 0 .279-.12 1.768 1.768 0 0 0-.262.03.504.504 0 0 0-.192.1zM28.946 2.4c-.013 0-.033.016-.059.05.009.035.02.052.033.053l.026-.103zM15.169 6.381c-.013 0-.033.017-.059.054.009.036.02.054.033.055l.026-.109zm5.027-1.325c.034.085.095.086.182.004 0-.056-.026-.077-.078-.062-.052.015-.087.034-.104.058zm-5.781 1.92c-.009-.003-.03.02-.065.07 0 .048.004.074.013.076l.052-.146zm-2.053 1.152c.004.013.024.02.058.019.035-.02.05-.038.046-.05l-.104.03zm12.013-3.474c.1-.141.201-.17.302-.089-.1.104-.202.134-.302.089zm-.669.37c-.035.028-.052.061-.052.098 0 .056.07.064.208.025.053-.202.01-.254-.13-.159l-.026.036zm.07-.137c.017-.005.017 0 0 .014l-.027.021.026-.035zm.952-.026c.067.017.11.023.126.018.034-.01.063-.042.088-.095a.383.383 0 0 0 .038-.164c-.134.113-.235.19-.303.228l.05.013zm-2.026.715c-.052-.04-.043-.08.027-.12.034.01.026.05-.027.12zm-7.615 2.118c.018.014.052.004.105-.031 0-.039-.013-.05-.04-.032a.249.249 0 0 0-.065.063zm9.698-2.787l.052.013c.035.009.044.002.026-.021-.017-.023-.043-.02-.078.008zm.816-.258c-.086.062-.095.13-.026.202.052-.015.074-.049.065-.102-.008-.053-.021-.086-.039-.1zm.616.08c0 .092-.017.106-.052.042 0-.092.018-.106.052-.042zm-1.579.478c.052-.07.078-.069.078.006-.052.07-.078.068-.078-.006zm-3.698 1.27c.07.037.139.017.208-.06a.162.162 0 0 0-.104-.04c-.035 0-.07.034-.104.1zm-1.12.843c-.07-.056-.061-.134.026-.236.07.037.06.115-.026.236zM9.27 10.362c-.012-.001-.036.019-.07.06.008.036.019.055.032.056l.039-.116zm14.595-4.083c.106-.025.212-.069.318-.131.107-.063.17-.115.192-.157-.107-.03-.16 0-.16.093l-.16.038c-.148.035-.244.086-.286.152l.096.005zm.86-.265c.017-.061.043-.092.078-.093a.33.33 0 0 1 .13.032c-.07.076-.139.096-.208.06zm-2.765.856c.035.084.092.128.17.133.078.006.117-.058.117-.189-.087-.05-.182-.03-.287.056zm-.382.3c.018-.023.053-.062.105-.115.052-.053.069-.096.052-.128l-.026.092a.54.54 0 0 0-.105.06c-.052.033-.06.064-.026.092zm1.382-.575c.004.013.023.019.058.018.035-.02.05-.035.046-.048l-.104.03zm-1.705.612c.018.051.053.069.105.054.052-.016.078-.033.078-.052 0-.094-.061-.095-.183-.002zm-.205.187c-.069.001-.078-.024-.026-.077.087.012.096.037.026.077zm-4.403 1.891c-.009.008-.013.036-.013.084.017.033.03.045.039.038l-.026-.122zm-10.623 3.56a.145.145 0 0 0 .007.074.258.258 0 0 0 .058-.094l-.065.02zm8.306-.565c.018.014.052.003.105-.033-.018-.014-.035-.018-.053-.013-.017.006-.034.02-.052.046zm-4.213 1.695c0 .02.005.028.013.025.01-.002.022-.026.04-.071-.035-.068-.053-.052-.053.046zm-1.78 1.143c-.014.01-.024.035-.033.078.017.024.032.031.045.022l-.013-.1zm-.073.51c0-.05.013-.113.039-.188.026-.075.013-.114-.04-.117-.017.033-.069.126-.156.277-.086.152-.095.264-.026.336l.183-.307zm5.336-1.774c-.017-.053-.009-.095.026-.126.052.003.044.045-.026.126zM3.035 18.582c-.07.004-.079-.023-.027-.082.087.01.096.038.027.082zM2.37 19.65c.018.014.052.002.104-.037 0-.04-.013-.05-.039-.032a.269.269 0 0 0-.065.069zm.96.048c.039.064.086.083.143.06.094-.041.198-.191.312-.45l-.029.011-.085-.003a.49.49 0 0 0-.184.177 2.47 2.47 0 0 1-.156.205zm8.599-3.02a.138.138 0 0 0 .006.071.258.258 0 0 0 .059-.093l-.065.022zm-1.22 1.234c0 .02.014.04.04.06.026-.039.04-.068.04-.087l-.08.027zm1.297.323c.09-.078.181-.18.272-.306.09-.126.136-.237.136-.333 0-.121-.08-.156-.238-.105l-.034.301a.344.344 0 0 0-.17.218c-.023.092-.012.167.034.225zm.309-.413c-.07.023-.104-.004-.104-.082.07-.043.104-.016.104.082zm-.361.657c-.009.007-.013.036-.013.085.017.033.03.045.039.038l-.026-.123zm-.042.828c.017-.007.043-.073.078-.199.035-.125.052-.211.052-.26l-.052.169-.052.06c-.07.078-.078.155-.026.23zm.805-.338c-.052-.001-.07-.025-.052-.07.017-.045.043-.102.078-.173.052.08.043.16-.026.243zm-1.092.79a.049.049 0 0 0 .02.053.285.285 0 0 0 .046-.09l-.066.038zm.283.018c.004.013.024.018.058.016.035-.022.05-.04.046-.052l-.104.036zm-.402.662c-.052-.04-.052-.08 0-.118.052.002.052.04 0 .118zm-2.538 1.72c-.013 0-.037.022-.072.064.01.036.02.055.033.055l.04-.118zm-.164.453c-.009-.002-.022.02-.04.066-.008.043-.008.065 0 .067l.04-.133zm2.213.244a.413.413 0 0 0 .092-.063c.043-.035.047-.066.013-.093a1.363 1.363 0 0 1-.105.126c-.052.059-.069.104-.052.137l.052-.107zm-.88.526c-.009.008-.013.037-.013.086.017.033.03.045.039.037l-.026-.123zm.303-.153c-.009.008-.013.036-.013.085.017.033.03.046.039.038l-.026-.123zm-2.012 1.148c-.009.018 0 .027.026.027a.316.316 0 0 0 .078-.08l-.104.053zm.024.417c-.052-.08-.043-.162.026-.247.087.027.078.11-.026.247zm2.366-.277c.052-.047.095-.145.13-.294.035-.148.044-.254.026-.319a.406.406 0 0 0-.052.277.593.593 0 0 0-.104.336zm.346-.628c0 .02.013.04.04.06.025-.04.038-.069.038-.089l-.078.03zm.368-.009c0 .098-.017.114-.052.049 0-.098.017-.114.052-.049zm-.326.435c-.013.01-.023.036-.032.078.026.02.045.025.058.015l-.026-.093zM9.65 26.188c0 .02.013.04.04.06.025-.04.038-.07.038-.09l-.078.03zm1.303.282c-.004.016-.028.043-.072.079-.026-.01-.037-.023-.032-.04l.104-.039zm0 .03c.003-.016-.012-.023-.046-.02-.035.023-.055.043-.059.06l.104-.04zm-.665 1.235c.035-.157.052-.265.052-.324s-.017-.104-.052-.135a.695.695 0 0 0 0 .46zm-.458.46c-.017.153-.026.26-.026.32 0 .061.018.108.052.14.035-.186.026-.34-.026-.46zm.307 1.01c-.009.008-.013.037-.013.086.017.033.03.045.039.037l-.026-.123zm-.752.474l-.026.01c0 .08.013.104.039.074.026-.03.021-.058-.013-.084zm.266-.105c-.048.072-.084.12-.108.144-.024.024-.048.018-.072-.017a.525.525 0 0 0-.06-.076l-.025.012c0 .618.032 1.006.097 1.163a2.186 2.186 0 0 0 .12-.632c.096-.333.112-.532.048-.594zm.36-.054c.07-.007.053.03-.051.109-.052 0-.035-.036.052-.109zm-.106 2.327c0-.046.02-.119.06-.218.04-.1.036-.172-.012-.216-.096.23-.168.516-.216.86 0 .068-.012.187-.036.36-.024.17-.012.279.036.323v.034a.968.968 0 0 1-.024.149c-.016.076 0 .114.048.113.048-.093.084-.27.108-.533.024-.263.036-.417.036-.462v-.41zm-.374-.19c-.008.008-.013.037-.013.086.018.033.03.045.04.036l-.027-.122zm-.348.535c.004.013.023.018.058.014.035-.024.05-.042.046-.055l-.104.041zm-.29 1.812c0 .02.013.04.04.059.025-.04.038-.07.038-.09l-.078.031zm.554.627c.121-.061.182-.213.182-.455 0-.17-.035-.273-.104-.311-.052.098-.078.244-.078.438v.328zm-.092-.482a.138.138 0 0 0 .006.07.284.284 0 0 0 .06-.097l-.066.027zm-.442.379c-.052-.018-.044-.052.026-.1.07-.008.06.025-.026.1zm.698.738c0-.041.013-.098.039-.17.026-.074.03-.122.013-.145-.018-.024-.07-.017-.156.02-.07.112-.105.281-.105.508 0 .123.018.198.053.224a.574.574 0 0 0 .104-.199.745.745 0 0 0 .052-.238zm-.858 1.012c.087-.076.104-.152.052-.23-.052.022-.078.062-.078.122s.009.095.026.108zm29.1-33.88c.098.095.147.183.147.263 0 .06-.01.118-.03.174-.02.055-.039.116-.058.181a9.86 9.86 0 0 1-.103.314c-.05.144-.035.246.044.305l-.06.137c.02.035.03.102.03.203 0 .14-.039.302-.118.485a65.338 65.338 0 0 0-1.148 2.651c-.02.006-.03.004-.03-.006v-.016c-.039-.05-.078-.068-.117-.057a.34.34 0 0 0-.118.064.52.52 0 0 0-.089.086.34.34 0 0 0-.103.151.569.569 0 0 0-.014.126v.122c-.06.138-.167.21-.324.215v.03c.039.11.088.157.147.14.04-.011.078-.053.118-.125a.474.474 0 0 0 .059-.23 1.35 1.35 0 0 1 .324-.184l-.06.138a5.63 5.63 0 0 0-.353.953c-.02.067-.044.175-.073.326-.03.15-.074.285-.133.404a.735.735 0 0 1-.147.242 6.065 6.065 0 0 0-.177.22 2 2 0 0 1-.059.414c-.04.093-.098.151-.177.175l-.176.236a.513.513 0 0 0 0 .244c-.138.042-.207.134-.207.277-.039.113-.039.195 0 .244 0 .04.01.104.03.19.02.085.01.195-.03.33a16.5 16.5 0 0 1-.324 1.017l-.265.787a5.768 5.768 0 0 1-.235.826 1.71 1.71 0 0 1-.383.568c.059.001.113.004.162.009.049.005.093.01.132.019a.925.925 0 0 0-.456.53 2.799 2.799 0 0 0-.162.73 6.11 6.11 0 0 1-.059.527c-.02.13-.069.274-.147.433-.079.16-.138.308-.177.444-.02.089-.02.227 0 .416.02.188.02.337 0 .446a32.412 32.412 0 0 1-.471 1.98c-.06.227-.152.625-.28 1.195-.128.57-.23 1.076-.31 1.516-.078.565-.127.985-.147 1.26l-.088.838c0 .082-.01.241-.03.475-.019.235-.058.456-.117.664-.06.249-.108.608-.147 1.078a19.169 19.169 0 0 1-.207 1.226c-.039-.027-.063-.116-.073-.267a1.576 1.576 0 0 0-.06-.366c-.029-.092-.092-.089-.19.01a.389.389 0 0 0-.104.226.42.42 0 0 1-.044.172 1.64 1.64 0 0 1-.324.28c.059.04.088.106.088.2 0 .092.01.156.03.19a.448.448 0 0 0 .206-.017c.02.034.03.093.03.176 0 .083-.05.278-.148.585a2.15 2.15 0 0 0-.059.428c0 .103.015.227.045.372l.073.36a5 5 0 0 0 .015.305c.01.141.034.235.074.282.058.08.171.098.338.053.167-.045.28-.048.339-.009.079.031.118.093.118.186v.233c0 .041.02.11.059.209.039.098.02.193-.06.287l-.029.042c-.02.008-.03.017-.03.028v.015a.188.188 0 0 1-.087.066.393.393 0 0 1-.162.018 1.921 1.921 0 0 0-.192-.001c-.137.034-.353.11-.648.227a3.361 3.361 0 0 1-1.001.15.29.29 0 0 1-.206-.042.69.69 0 0 0-.177-.086 2.235 2.235 0 0 1-.339-.084 1.425 1.425 0 0 1-.368-.168 1.633 1.633 0 0 1-.295-.26 2.826 2.826 0 0 1-.441-1.1c-.079-.422-.138-.971-.177-1.65a2.46 2.46 0 0 1 .015-.59c.029-.252.044-.463.044-.631 0-.147-.01-.26-.03-.336l-.03-.367.03-.358c0-.042.005-.097.015-.163.01-.067-.025-.107-.103-.12.059-.064.113-.205.162-.423a4.37 4.37 0 0 0 .074-.358c-.118-.02-.148-.103-.089-.251.04-.099.079-.24.118-.422l.059-.526c.04-.371.098-.729.177-1.072l.117-.735c.02-.133.04-.313.06-.54.019-.227.058-.425.117-.593.157-.516.236-.879.236-1.088a.795.795 0 0 0-.03-.226.683.683 0 0 1-.03-.194c0-.125.07-.212.207-.26l1.561-6.496c-.02.006-.03-.012-.03-.053.04-.054.06-.07.06-.05l.117-.505-.03.01c-.097.03-.205.148-.323.352-.079.191-.152.381-.221.57a7.227 7.227 0 0 1-.22.54c-.06.123-.133.267-.222.431a2.816 2.816 0 0 0-.191.423.145.145 0 0 1-.074.055.145.145 0 0 0-.073.055c.02.078.029.2.029.367a.674.674 0 0 1-.162.241.926.926 0 0 0-.162.195c-.04.065-.03.13.03.194l-.383.222c.058.001.112.004.162.009.049.004.093.01.132.018a3.71 3.71 0 0 0-.177.468 2.241 2.241 0 0 1-.206.477 4.15 4.15 0 0 0-.235.583 35.67 35.67 0 0 1-.207.606c-.059.146-.137.325-.235.538a5.105 5.105 0 0 0-.206.497c0 .02-.03.23-.089.63-.059.231-.118.394-.176.488-.06.095-.158.124-.295.088-.04.056-.059.158-.059.306 0 .147-.02.26-.059.337a.32.32 0 0 1-.118.137.513.513 0 0 0-.117.105 3.343 3.343 0 0 0-.295.517l-.088.349-.089.412a.805.805 0 0 1-.353.255c-.06.021-.167.04-.324.054-.295.042-.786.04-1.473-.01-.059 0-.191-.005-.397-.016a1.317 1.317 0 0 1-.516-.119 1.658 1.658 0 0 1-.383-.264c-.255-.273-.471-.69-.648-1.25a5.776 5.776 0 0 1-.073-.378 2.612 2.612 0 0 1-.045-.42 1.074 1.074 0 0 1-.147-.207c.06-.063.089-.117.089-.16l-.118-.088a.537.537 0 0 0 .059-.134c.02-.06.03-.123.03-.188a.215.215 0 0 0-.06-.157.215.215 0 0 1-.059-.157 1.87 1.87 0 0 1 0-.469c.02-.168.02-.335 0-.5l-.147-1.34v-.065c0-.108.01-.209.03-.301.02-.093.029-.194.029-.301 0-.151-.05-.253-.147-.307a.444.444 0 0 0 .088-.256l-.03-.249v-.259c0-.107-.014-.183-.044-.228-.03-.044-.103-.057-.22-.04.02.231-.01.484-.089.758-.078.275-.196.633-.353 1.076a4.873 4.873 0 0 0-.265.706l-.236.601a.9.9 0 0 0-.03.238c0 .086-.02.202-.058.345l-.236.733c0 .065.015.147.044.245.03.098.04.17.03.217-.01.047-.084.051-.221.013-.04.057-.06.096-.06.118 0 .044.016.087.045.131.03.044.044.077.044.099l.177.133c0 .043-.01.079-.03.108l-.058.086-.089.161.118.088c-.059.043-.093.05-.103.02a.132.132 0 0 0-.044-.065l-.089.13c0 .108.01.18.03.217l.03.185.117.055c-.059.065-.108.05-.147-.045 0 .044-.03.076-.089.097v.424c0 .108-.01.21-.029.304l-.059.64a.868.868 0 0 1-.162.173.791.791 0 0 0-.132.13c0 .043-.005.132-.015.266-.01.135-.054.227-.133.278a1.12 1.12 0 0 1-.176-.328c-.099.101-.167.301-.207.599-.039.298-.059.469-.059.512-.137.531-.216.877-.235 1.037-.216.933-.373 1.55-.471 1.85a4.36 4.36 0 0 1-.177.56l-.177.462c-.04.125-.069.295-.088.51-.02.216-.04.394-.06.533-.019.249-.107.7-.264 1.354 0 .066-.01.234-.03.505-.02.271-.078.47-.176.598a.946.946 0 0 0-.089-.393c-.039.037-.078.157-.118.36-.039.202-.068.33-.088.381 0 .022-.024.065-.074.129a.362.362 0 0 0-.073.227c0 .044.034.08.103.107.069.027.074.097.015.209-.138-.033-.197.024-.177.17.02.124.04.199.059.224.02.025.054.038.103.04.049.002.093.006.132.013a.494.494 0 0 0-.235.425v.1a.445.445 0 0 1-.177.368l-.412.037c-.295.077-.51.12-.648.133-.55.004-.825-.448-.825-1.358 0-.244.02-.529.059-.855.118-.956.324-2.256.619-3.897.55-2.618 1.227-5.414 2.032-8.383.02-.095.059-.202.118-.321.059-.12.108-.23.147-.331v-.033a.474.474 0 0 0-.03-.121c-.02-.06-.02-.103 0-.132.04-.101.079-.186.118-.255.04-.068.069-.127.089-.178l.059-.546c.078-.246.166-.473.265-.682.098-.208.176-.399.235-.572.04-.1.084-.28.133-.536.049-.257.093-.435.132-.536a36.428 36.428 0 0 1 1.444-4.094l.942-2.147c.02-.071.064-.198.133-.381.068-.183.152-.344.25-.482l.265-.566c.02-.049.044-.132.074-.248.03-.117.083-.198.162-.243.02-.027.059-.05.117-.068a.518.518 0 0 1 .207-.013c.078.009.127.021.147.037l.294.04a.84.84 0 0 0 .25.022.842.842 0 0 1 .251.021c.02.059.059.09.118.093.02.209.137.248.353.12.04.03.079.077.118.14.04.063.089.118.147.164a.504.504 0 0 0 .236.025.832.832 0 0 1 .265.016l.413.164.206-.063.294.262c.079.04.177.047.295.022s.206-.025.265 0c.02-.006.059.067.118.218.059.152.098.235.117.25l.045.178c.01.039.005.104-.015.195l-.177.435c-.04.14-.059.24-.059.304 0 .085.03.203.089.354a.832.832 0 0 1 .059.427c-.02.112-.064.231-.133.359a2.772 2.772 0 0 1-.162.273.549.549 0 0 0-.03.2v.191c0 .085-.01.173-.029.264a.647.647 0 0 1-.177.2.647.647 0 0 0-.176.2c.078.101.068.221-.03.36l.03.117c0 .106-.05.207-.148.302l-.088.156c.098.054.137.147.118.281 0 .106-.01.2-.03.28-.02.081-.029.175-.029.281l.03.214c.078.123.048.239-.089.348 0 .127.02.29.059.49.137.04.147.111.03.214.058.044.088.098.088.162.098.137.078.27-.06.402 0 .064.006.19.016.377.01.188.044.304.103.348.059-.062.078-.111.059-.147v-.096c0-.106.068-.171.206-.196.039-.098.073-.21.103-.337.03-.127.083-.277.162-.452.334-.745.53-1.19.589-1.336a28.55 28.55 0 0 1 1.12-2.605l.353-.742c.47-1.007.873-1.78 1.207-2.32l.795-1.364 1.031-1.58.501-.733c.687-1 1.266-1.806 1.738-2.42a13.343 13.343 0 0 1 1.62-1.741c.039-.031.137-.118.294-.262.157-.143.314-.235.471-.277.118-.03.256-.036.413-.016.373.084.785.24 1.237.464.098.055.27.126.515.212.246.086.418.197.516.332zm-1.772 3.44c.07.104.026.196-.13.276l.13-.276zm-.82.723c.018.013.027.028.027.046s-.009.011-.026-.02v-.026zm-4.972 3.3c-.052.07-.06.136-.026.198l.052-.179-.026-.02zm3.816-.349a.406.406 0 0 0 .079-.05c.034-.025.026-.064-.027-.115l-.078.14v.018c0 .012-.008.021-.026.028a.519.519 0 0 0-.13.27c.087.012.139-.003.156-.046a.759.759 0 0 0 .026-.245zm-.015-.033l-.026.008-.026.035.052-.016v-.027zm-4.226 1.528c0 .073-.026.09-.078.051 0-.072.026-.09.078-.05zm-.392.868c0-.066.009-.135.025-.208a.828.828 0 0 0 .025-.175l-.075.129c-.033.035-.082.12-.148.257-.067.136-.091.212-.075.227.017-.16.1-.237.248-.23zm4.17-1.557c-.069.039-.095.078-.078.118a.25.25 0 0 1 .026.086.185.185 0 0 0 .066-.087c.008-.03.004-.069-.013-.117zm-3.804 1.712l.026-.172c-.052.035-.078.097-.078.188l.052-.016zm-.951.921a.645.645 0 0 0 .104-.219c.018-.071 0-.127-.052-.167-.035.03-.06.1-.078.21a1.74 1.74 0 0 0-.026.25l.052-.074zm-8.88 2.627c-.013 0-.028.016-.046.05.009.036.02.053.033.054l.013-.104zm8.556-1.48c.05-.094.088-.203.114-.326.025-.123.054-.219.088-.287l-.101.006c-.084.029-.139.119-.164.27a3.403 3.403 0 0 0-.038.257l.101.08zm-9.033 2.91c.035-.015.052-.074.052-.176 0-.153-.017-.247-.052-.283-.035.067-.052.19-.052.369l.052.09zm9.506-2.846a.378.378 0 0 1-.13.07c-.087.027-.122-.044-.105-.213l.078-.053c.105-.033.157.032.157.196zm-.942.548a.814.814 0 0 1 .117-.262c.061-.094.092-.16.092-.197l-.026.008a.774.774 0 0 1-.105.02c-.052.008-.104.067-.156.178v.083c0 .094.026.15.078.17zm-8.693 2.707c-.013 0-.028.016-.045.05.008.036.02.053.032.054l.013-.104zm13.897-4.501c.07-.04.078-.07.026-.089-.035.011-.057.027-.065.048-.009.02.004.034.039.041zm-4.403 1.656c-.017.17-.104.262-.26.276a.971.971 0 0 1 .13-.26l.13-.016zm-9.826 3.873c.052-.037.052-.075 0-.114a.12.12 0 0 0-.026.066c0 .019.009.035.026.048zm8.195-1.33c-.087-.045-.095-.115-.026-.212.087.063.095.133.026.212zm-8.34 3.528c-.069-.033-.078-.106-.026-.22.105.06.113.132.026.22zm-.19.194c.035-.07.06-.069.078 0-.052.076-.078.076-.078 0zm.472.104c.07.032.078.067.026.104a.134.134 0 0 1-.039-.043c-.009-.016-.004-.036.013-.061zm-.913 2.728c-.035-.044-.035-.078 0-.1a.457.457 0 0 1 .078-.042l-.078.142zm11.592-1.761c0 .054.03.075.091.063.06-.013.091-.037.091-.073v-.027c-.052-.037-.113-.024-.182.037zm.626 1.382c.035-.078.026-.18-.026-.305-.104.106-.156.212-.156.317v.032c.017.161.078.146.182-.044zm-.999.112c-.013.009-.02.032-.02.068.027.018.046.022.06.013l-.04-.081zm-1.846 1.576c0 .018.013.027.04.027.025-.019.038-.037.038-.056l-.078.029zm1.735 1.378a.726.726 0 0 0 .242-.546c0-.212.06-.364.182-.456a.345.345 0 0 0-.258-.067c-.09.013-.136.086-.136.22 0-.044-.03-.01-.09.103-.061.112-.102.184-.122.214l.182.532zm-.07-.178l.026.072c.053-.038.066-.065.04-.083-.026-.018-.048-.014-.066.01zm-.367 4.158a.545.545 0 0 0 .128 0 .247.247 0 0 0 .127-.059.95.95 0 0 0-.16-.183.302.302 0 0 1-.095-.236c0-.08.005-.171.016-.275a.513.513 0 0 0-.016-.233.464.464 0 0 0-.175-.254 2.529 2.529 0 0 0-.175-.135v.42c0 .279.042.464.127.554l.16.184.031.049a.526.526 0 0 1 .048.088c.01.026.005.053-.016.08zm2.046 1.114l.052-.075-.052.075z"/>
</svg>
